<?xml version="1.0"?>
<svg version="1.1" xmlns="http://www.w3.org/2000/svg" width="400px" height="200px" style="border:2px solid black"><path fill="#ffffff" d="M52.5615234375,115.1171875q0-2.939453125,0.27294921875-7.642578125t0.65087890625-9.7001953125t0.94482421875-9.46923828125t1.23876953125-6.86572265625q0.251953125-1.0498046875,1.19677734375-1.259765625t1.91064453125-0.2099609375q1.3017578125,0,2.24658203125,0.4619140625t0.94482421875,2.015625q0,7.642578125-0.94482421875,15.30615234375t-1.02880859375,15.30615234375q1.3017578125-1.9736328125,3.359375-2.96044921875t4.3671875-0.98681640625q3.19140625,0,5.5009765625,1.3017578125t3.7373046875,3.359375t2.12060546875,4.76611328125t0.69287109375,5.52197265625q0,1.5537109375-0.31494140625,3.88427734375t-0.94482421875,4.9130859375t-1.595703125,5.123046875t-2.28857421875,4.55615234375t-3.04443359375,3.25439453125t-3.779296875,1.23876953125q-0.419921875,0-1.11279296875-0.1259765625t-1.3857421875-0.3779296875t-1.15478515625-0.65087890625t-0.4619140625-0.98681640625q0-0.671875,0.81884765625-0.94482421875t1.32275390625-0.27294921875q1.8896484375-0.83984375,3.359375-3.50634765625t2.45654296875-5.85791015625t1.49072265625-6.31982421875t0.50390625-5.10205078125q0-1.1337890625-0.3359375-3.0234375t-1.02880859375-3.7373046875t-1.8896484375-3.19140625t-2.83447265625-1.34375q-1.9736328125,0-3.1494140625,2.03662109375t-1.84765625,4.7451171875t-0.90283203125,5.5849609375t-0.23095703125,4.51416015625q0,1.0498046875,0.35693359375,2.07861328125t0.81884765625,2.0576171875t0.81884765625,2.099609375t0.35693359375,2.12060546875q0,0.50390625-0.44091796875,0.83984375t-1.02880859375,0.5458984375t-1.23876953125,0.27294921875t-0.98681640625,0.06298828125q-2.3935546875,0-3.3173828125-1.1337890625t-1.595703125-3.19140625q-1.4697265625-4.6611328125-2.03662109375-9.46923828125t-0.56689453125-9.63720703125z M87.527158203125,128.134765625q0-2.3935546875,0.60888671875-4.93408203125t1.931640625-4.5771484375t3.33837890625-3.3173828125t4.87109375-1.28076171875q2.1416015625,0,4.51416015625,0.73486328125t4.34619140625,2.099609375t3.21240234375,3.33837890625t1.23876953125,4.4091796875q0,2.939453125-1.07080078125,5.5849609375t-3.00244140625,4.72412109375t-4.51416015625,3.275390625t-5.60595703125,1.19677734375q-2.4775390625,0-4.3251953125-0.90283203125t-3.08642578125-2.41455078125t-1.84765625-3.5693359375t-0.60888671875-4.3671875z M93.700009765625,128.05078125q0,0.755859375,0.23095703125,2.2255859375t0.69287109375,2.87646484375t1.19677734375,2.435546875t1.78466796875,0.94482421875q2.2255859375-0.251953125,3.67431640625-1.44873046875t2.3515625-2.91845703125t1.259765625-3.7373046875t0.35693359375-3.8212890625q0-2.3095703125-0.90283203125-3.86328125t-2.96044921875-2.51953125q0,0.083984375,0.083984375,0.083984375t0.083984375-0.083984375l-1.0498046875-0.251953125q-0.419921875-0.16796875-1.02880859375-0.3779296875t-1.19677734375-0.923828125q-1.6376953125,0.587890625-2.54052734375,1.51171875t-1.36474609375,2.24658203125t-0.56689453125,3.17041015625t-0.10498046875,4.451171875z M119.38537109375,127.546875l0-1.2177734375q0-1.51171875,0.083984375-2.85546875q0.083984375-1.8896484375,0.083984375-3.107421875q0-0.671875,0.083984375-1.53271484375t0.419921875-1.36474609375q0.419921875-0.419921875,0.98681640625-0.86083984375t1.23876953125-0.44091796875q2.1416015625,0,3.359375,0.48291015625t1.3017578125,1.99462890625l0.16796875,1.3017578125q0.755859375-1.8056640625,2.015625-4.47216796875t2.91845703125-5.0810546875t3.7373046875-4.115234375t4.38818359375-1.70068359375q2.1416015625,0,3.52734375,2.015625t2.20458984375,5.14404296875t1.15478515625,6.970703125t0.4619140625,7.53759765625t0.16796875,6.73974609375t0.2939453125,4.59814453125q0.16796875,1.3017578125,0.56689453125,2.75048828125t0.39892578125,2.66650390625q0,0.3359375-0.48291015625,0.65087890625t-1.02880859375,0.52490234375t-1.11279296875,0.3359375t-0.81884765625,0.1259765625q-1.6376953125,0-2.33056640625-2.45654296875t-0.86083984375-6.15185546875t-0.16796875-7.99951171875t-0.2939453125-7.99951171875t-1.19677734375-6.15185546875t-2.87646484375-2.54052734375q-1.8056640625,0-3.7373046875,2.33056640625t-3.3173828125,6.19384765625q-1.34375,3.86328125-1.84765625,8.7763671875q-0.16796875,1.5537109375-0.16796875,3.107421875q0,3.4013671875,0.7138671875,6.802734375q0.083984375,0.587890625-0.48291015625,0.8818359375t-1.40673828125,0.4619140625t-1.70068359375,0.2099609375t-1.32275390625,0.0419921875q-1.6376953125,0-2.62451171875-1.15478515625t-1.53271484375-2.96044921875t-0.73486328125-4.05224609375t-0.23095703125-4.43017578125z M173.9055078125,127.3369140625q0-2.85546875,0.77685546875-5.5009765625t2.33056640625-4.72412109375t3.88427734375-3.3173828125t5.39599609375-1.23876953125q1.8896484375,0,4.17822265625,0.56689453125t4.30419921875,1.6796875t3.359375,2.83447265625t1.34375,3.947265625q0,1.0498046875-0.35693359375,1.595703125t-1.44873046875,0.5458984375l-0.4619140625-0.083984375q1.2177734375,3.275390625,2.099609375,6.71875t1.7216796875,6.88671875q0.3359375,0.671875,0.50390625,1.19677734375t0.16796875,1.02880859375q0,0.671875-0.3779296875,1.11279296875t-0.98681640625,0.65087890625t-1.259765625,0.2939453125t-1.15478515625,0.083984375q-1.8056640625,0-2.70849609375-0.6298828125t-1.3017578125-1.7216796875t-0.48291015625-2.45654296875t-0.3359375-2.75048828125q-0.50390625,1.6376953125-1.32275390625,3.19140625t-1.931640625,2.79248046875t-2.62451171875,1.9736328125t-3.4013671875,0.73486328125q-2.771484375,0-4.6611328125-1.595703125t-3.04443359375-3.92626953125t-1.6796875-4.97607421875t-0.52490234375-4.9130859375z M179.8683984375,126.7490234375q0,1.5537109375,0.2099609375,3.275390625t0.69287109375,3.4013671875t1.23876953125,3.17041015625t1.8896484375,2.62451171875q2.0576171875-2.2255859375,3.04443359375-5.4169921875t1.763671875-6.15185546875t1.763671875-5.0810546875t3.04443359375-2.12060546875q1.3017578125,0,2.18359375,0.4619140625q-0.419921875-1.0498046875-1.3857421875-2.03662109375t-2.16259765625-1.8056640625t-2.4775390625-1.34375t-2.41455078125-0.52490234375q-0.3359375,0-0.77685546875,0.10498046875t-0.69287109375,0.02099609375q-1.7216796875,0.50390625-2.83447265625,1.74267578125t-1.8056640625,2.91845703125t-0.98681640625,3.443359375t-0.2939453125,3.3173828125z M210.29887695312,112.1357421875q0-1.9736328125,0.77685546875-2.91845703125t2.83447265625-0.94482421875q1.2177734375,0,2.28857421875,0.50390625t1.07080078125,2.1416015625q0.16796875,2.3935546875,0.16796875,5.01806640625t0.4619140625,4.97607421875q1.0498046875-1.7216796875,2.37255859375-3.443359375t2.91845703125-3.0654296875t3.4853515625-2.16259765625t4.115234375-0.81884765625q3.0234375,0,5.123046875,1.259765625t3.46435546875,3.275390625t1.9736328125,4.55615234375t0.60888671875,5.10205078125q0,3.947265625-1.19677734375,6.44580078125t-3.17041015625,3.92626953125t-4.47216796875,1.931640625t-5.01806640625,0.50390625q-2.2255859375,0-4.1572265625-0.86083984375t-2.6875-3.25439453125q0-0.671875,0.98681640625-0.83984375t1.40673828125-0.16796875q1.3857421875,0,2.0576171875,0.755859375q0.50390625,0.587890625,1.11279296875,1.19677734375t1.28076171875,0.60888671875q1.3017578125,0,2.7294921875-0.73486328125t2.62451171875-1.931640625t2.015625-2.83447265625t0.81884765625-3.359375q0-1.4697265625-0.251953125-3.6533203125t-0.86083984375-4.19921875t-1.6796875-3.4853515625t-2.70849609375-1.4697265625q-2.4775390625,0-4.47216796875,2.267578125t-3.3173828125,5.458984375t-2.0576171875,6.634765625t-0.73486328125,5.7529296875t0.2939453125,5.8369140625t0.60888671875,7.32763671875t0.60888671875,7.32763671875t0.2939453125,5.8369140625q0,0.587890625-0.48291015625,0.94482421875t-1.15478515625,0.56689453125t-1.36474609375,0.251953125t-1.02880859375,0.0419921875q-1.1337890625,0-2.37255859375-0.251953125t-1.70068359375-1.5537109375q-0.587890625-2.0576171875-1.091796875-5.85791015625t-0.90283203125-8.3984375t-0.69287109375-9.658203125t-0.50390625-9.76318359375t-0.31494140625-8.6083984375t-0.10498046875-6.21484375z M250.55552734375,129.05859375q0-2.939453125,0.65087890625-6.9287109375t2.20458984375-7.55859375t4.09423828125-6.06787109375t6.40380859375-2.49853515625q3.611328125,0,5.4169921875,2.07861328125t1.8056640625,5.60595703125q0,2.3095703125-0.86083984375,5.06005859375t-2.45654296875,5.20703125t-3.779296875,4.09423828125t-4.87109375,1.6376953125l-1.091796875-0.083984375q0,1.1337890625,0.3359375,3.04443359375t0.98681640625,3.80029296875t1.6796875,3.3173828125t2.49853515625,1.427734375q2.1416015625,0,4.115234375-1.7216796875t3.7373046875-3.8212890625t3.275390625-3.8212890625t2.771484375-1.7216796875q0.671875,0,1.3857421875,0.2099609375t0.7978515625,1.17578125q0,0.587890625-0.31494140625,0.9658203125t-0.56689453125,0.83984375q-1.3017578125,2.2255859375-2.83447265625,4.2412109375t-3.46435546875,3.6533203125t-4.22021484375,2.58251953125t-5.06005859375,0.94482421875q-3.611328125,0-6.0048828125-1.28076171875t-3.86328125-3.443359375t-2.12060546875-4.9970703125t-0.65087890625-5.94189453125z M258.07212890625,125.8671875l1.17578125,1.0498046875q0.83984375,0.755859375,1.6796875,0.3359375t1.51171875-1.53271484375t1.23876953125-2.75048828125t1.0078125-3.359375t0.65087890625-3.359375t0.2099609375-2.7294921875l0-1.427734375t-0.1259765625-1.51171875t-0.44091796875-1.19677734375t-0.98681640625-0.60888671875q-0.2099609375-0.0419921875-0.3779296875-0.0419921875q-1.427734375,0-2.435546875,1.8056640625q-1.091796875,2.015625-1.763671875,4.89208984375t-0.9658203125,5.89990234375t-0.3779296875,4.53515625z M283.92545898437,100.671875q0-0.587890625,1.259765625-1.0078125t2.85546875-0.69287109375t3.08642578125-0.39892578125t2.03662109375-0.2099609375q0-1.1337890625,0.083984375-2.28857421875t0.4619140625-2.0576171875t1.19677734375-1.44873046875t2.28857421875-0.5458984375q1.2177734375,0,1.84765625,0.2939453125t1.34375,1.2177734375q0.16796875,0.50390625,0.16796875,0.9658203125l0,1.40673828125t-0.083984375,1.44873046875q1.5537109375-0.16796875,3.08642578125-0.39892578125t3.08642578125-0.23095703125q1.1337890625,0,1.5537109375,0.0419921875t0.83984375,1.0078125q0.3359375,0.9658203125-0.81884765625,1.4697265625t-2.771484375,0.755859375t-3.21240234375,0.3779296875t-1.931640625,0.1259765625q-0.50390625,7.22265625-1.02880859375,14.3193359375t-0.52490234375,14.4033203125q0,3.275390625,0.2099609375,6.7607421875t1.17578125,6.5927734375q0.251953125,0.9658203125,0.83984375,1.8056640625t0.587890625,1.8056640625q0,0.587890625-0.4619140625,0.923828125t-1.11279296875,0.56689453125t-1.3017578125,0.27294921875t-1.07080078125,0.0419921875q-2.6455078125,0-4.03125-1.9736328125t-1.99462890625-4.72412109375t-0.65087890625-5.64794921875t-0.0419921875-4.703125q0-3.6953125,0.14697265625-7.55859375t0.35693359375-7.642578125t0.587890625-7.390625t0.8818359375-6.71875q-1.4697265625,0.16796875-2.87646484375,0.3779296875t-2.87646484375,0.2099609375q-0.3359375,0-0.90283203125-0.0419921875t-1.07080078125-0.2099609375t-0.86083984375-0.4619140625t-0.35693359375-0.83984375z M316.035625,126.3291015625q0-3.86328125,0.90283203125-7.57958984375t1.53271484375-7.41162109375q0.16796875-0.9658203125,1.32275390625-1.19677734375t1.95263671875-0.23095703125q1.3857421875,0,2.2255859375,0.419921875q0.3359375,0.16796875,0.6298828125,0.3779296875t0.2939453125,0.5458984375q0,3.611328125-0.86083984375,7.0546875t-0.86083984375,7.306640625q0,1.3017578125,0.18896484375,2.45654296875t0.35693359375,2.28857421875l0.251953125,1.2177734375q0,0.3359375,0.0419921875,0.587890625t0.1259765625,0.587890625q0,0.755859375-1.07080078125,1.02880859375t-1.86865234375,0.27294921875q-1.2177734375,0-2.24658203125-0.48291015625t-1.61669921875-1.65869140625l-0.587890625-1.2177734375q-0.50390625-0.9658203125-0.50390625-2.16259765625t-0.2099609375-2.20458984375z M318.723125,101.0498046875l0-0.7978515625q0-1.9736328125,0.98681640625-3.52734375t2.96044921875-1.5537109375q0.251953125,0,0.48291015625,0.0419921875t0.48291015625,0.0419921875q0.50390625,0.083984375,1.32275390625,0.39892578125t0.81884765625,0.98681640625l0,0.083984375q-0.16796875,0.3359375-0.2099609375,0.69287109375t-0.2099609375,0.60888671875l0.083984375-0.083984375q-0.50390625,1.3017578125-0.81884765625,2.099609375t-0.69287109375,1.28076171875t-0.94482421875,0.69287109375t-1.61669921875,0.2099609375q-0.16796875,0-0.587890625-0.0419921875t-0.90283203125-0.16796875t-0.81884765625-0.3359375t-0.3359375-0.6298828125z M332.65067382812,100.671875q0-0.587890625,1.259765625-1.0078125t2.85546875-0.69287109375t3.08642578125-0.39892578125t2.03662109375-0.2099609375q0-1.1337890625,0.083984375-2.28857421875t0.4619140625-2.0576171875t1.19677734375-1.44873046875t2.28857421875-0.5458984375q1.2177734375,0,1.84765625,0.2939453125t1.34375,1.2177734375q0.16796875,0.50390625,0.16796875,0.9658203125l0,1.40673828125t-0.083984375,1.44873046875q1.5537109375-0.16796875,3.08642578125-0.39892578125t3.08642578125-0.23095703125q1.1337890625,0,1.5537109375,0.0419921875t0.83984375,1.0078125q0.3359375,0.9658203125-0.81884765625,1.4697265625t-2.771484375,0.755859375t-3.21240234375,0.3779296875t-1.931640625,0.1259765625q-0.50390625,7.22265625-1.02880859375,14.3193359375t-0.52490234375,14.4033203125q0,3.275390625,0.2099609375,6.7607421875t1.17578125,6.5927734375q0.251953125,0.9658203125,0.83984375,1.8056640625t0.587890625,1.8056640625q0,0.587890625-0.4619140625,0.923828125t-1.11279296875,0.56689453125t-1.3017578125,0.27294921875t-1.07080078125,0.0419921875q-2.6455078125,0-4.03125-1.9736328125t-1.99462890625-4.72412109375t-0.65087890625-5.64794921875t-0.0419921875-4.703125q0-3.6953125,0.14697265625-7.55859375t0.35693359375-7.642578125t0.587890625-7.390625t0.8818359375-6.71875q-1.4697265625,0.16796875-2.87646484375,0.3779296875t-2.87646484375,0.2099609375q-0.3359375,0-0.90283203125-0.0419921875t-1.07080078125-0.2099609375t-0.86083984375-0.4619140625t-0.35693359375-0.83984375z M364.76083984375,129.05859375q0-2.939453125,0.65087890625-6.9287109375t2.20458984375-7.55859375t4.09423828125-6.06787109375t6.40380859375-2.49853515625q3.611328125,0,5.4169921875,2.07861328125t1.8056640625,5.60595703125q0,2.3095703125-0.86083984375,5.06005859375t-2.45654296875,5.20703125t-3.779296875,4.09423828125t-4.87109375,1.6376953125l-1.091796875-0.083984375q0,1.1337890625,0.3359375,3.04443359375t0.98681640625,3.80029296875t1.6796875,3.3173828125t2.49853515625,1.427734375q2.1416015625,0,4.115234375-1.7216796875t3.7373046875-3.8212890625t3.275390625-3.8212890625t2.771484375-1.7216796875q0.671875,0,1.3857421875,0.2099609375t0.7978515625,1.17578125q0,0.587890625-0.31494140625,0.9658203125t-0.56689453125,0.83984375q-1.3017578125,2.2255859375-2.83447265625,4.2412109375t-3.46435546875,3.6533203125t-4.22021484375,2.58251953125t-5.06005859375,0.94482421875q-3.611328125,0-6.0048828125-1.28076171875t-3.86328125-3.443359375t-2.12060546875-4.9970703125t-0.65087890625-5.94189453125z M372.27744140625,125.8671875l1.17578125,1.0498046875q0.83984375,0.755859375,1.6796875,0.3359375t1.51171875-1.53271484375t1.23876953125-2.75048828125t1.0078125-3.359375t0.65087890625-3.359375t0.2099609375-2.7294921875l0-1.427734375t-0.1259765625-1.51171875t-0.44091796875-1.19677734375t-0.98681640625-0.60888671875q-0.2099609375-0.0419921875-0.3779296875-0.0419921875q-1.427734375,0-2.435546875,1.8056640625q-1.091796875,2.015625-1.763671875,4.89208984375t-0.9658203125,5.89990234375t-0.3779296875,4.53515625z"/><path fill="#ffffff" d=""/></svg>
