<?xml version="1.0" encoding="UTF-8"?>
<!-- Generator: visioncortex VTracer 0.6.3 -->
<svg version="1.1" xmlns="http://www.w3.org/2000/svg" width="1280" height="1024">
<path d="M0 0 C422.4 0 844.8 0 1280 0 C1280 337.92 1280 675.84 1280 1024 C857.6 1024 435.2 1024 0 1024 C0 686.08 0 348.16 0 0 Z " fill="#EED55F" transform="translate(0,0)"/>
<path d="M0 0 C1.13 -0 2.25 -0.01 3.42 -0.01 C26 -0.05 48.43 0.81 70.56 5.56 C72.06 5.87 73.56 6.18 75.06 6.49 C85.45 8.68 95.64 11.31 105.72 14.67 C108.71 15.65 111.73 16.5 114.75 17.38 C119.72 18.9 124.37 20.83 129.05 23.07 C130.97 23.97 132.92 24.83 134.88 25.64 C167.06 39.35 195.13 61.59 213.69 91.31 C214.33 92.34 214.98 93.36 215.64 94.42 C219.69 100.98 219.69 100.98 219.69 103.31 C220.35 103.56 221.02 103.8 221.71 104.05 C232.3 108.53 242.05 114.76 250.69 122.31 C251.44 122.91 252.2 123.51 252.98 124.13 C262.12 131.64 271.21 143.2 272.69 155.31 C273.35 165.24 270.26 173.78 263.69 181.31 C258.58 185.68 254.11 188.17 247.69 190.31 C247.69 196.91 247.69 203.51 247.69 210.31 C250.16 211.3 250.16 211.3 252.69 212.31 C262.14 219.4 269.91 228.33 271.69 240.31 C272.09 254.07 266.91 262.51 257.79 272.37 C255.18 275.02 252.8 277.24 249.69 279.31 C249.25 282.09 249.25 282.09 249.35 285.4 C249.35 286.67 249.35 287.95 249.35 289.27 C249.36 289.96 249.36 290.64 249.37 291.35 C249.39 293.5 249.38 295.64 249.38 297.79 C249.35 303.9 249.36 310.01 249.4 316.12 C249.42 319.86 249.42 323.6 249.39 327.33 C249.39 328.75 249.4 330.18 249.42 331.6 C249.58 344.11 249.58 344.11 245.83 348.59 C244.27 350.06 244.27 350.06 242.69 351.31 C241.18 352.52 241.18 352.52 239.64 353.75 C232.84 358.34 225.98 362.53 218.69 366.31 C217.18 367.12 215.67 367.92 214.16 368.73 C190.56 381.31 190.56 381.31 186.69 381.31 C186.69 381.97 186.69 382.63 186.69 383.31 C187.52 383.68 187.52 383.68 188.38 384.06 C197.44 388.96 202.86 398.59 206.03 408.16 C208.26 418.81 207.61 429.54 202.69 439.31 C202.21 440.29 201.74 441.26 201.25 442.26 C193 457.75 179.09 468.76 162.38 473.88 C146.85 477.4 131.65 476.34 117.81 468 C108.7 461.75 102.06 454.43 99.69 443.31 C98.91 433.06 98.92 422.96 102.69 413.31 C102.69 412.65 102.69 411.99 102.69 411.31 C99.83 411.87 96.98 412.43 94.12 413 C92.76 413.27 92.76 413.27 91.36 413.55 C86.82 414.45 82.29 415.39 77.79 416.45 C62.15 420.09 46.37 422.54 30.52 424.99 C29.1 425.21 29.1 425.21 27.65 425.43 C25.85 425.71 24.06 425.99 22.26 426.26 C21.45 426.38 20.65 426.51 19.82 426.64 C18.76 426.8 18.76 426.8 17.68 426.96 C15.66 427.29 15.66 427.29 13.58 427.84 C11.23 428.43 9.01 428.51 6.59 428.59 C5.62 428.63 4.66 428.67 3.66 428.71 C1.63 428.78 -0.4 428.85 -2.42 428.92 C-3.39 428.96 -4.35 428.99 -5.35 429.03 C-6.23 429.06 -7.11 429.09 -8.02 429.12 C-10.47 429.23 -10.47 429.23 -13.31 430.31 C-15.7 430.53 -18.08 430.7 -20.47 430.85 C-21.18 430.89 -21.88 430.93 -22.61 430.98 C-24.1 431.07 -25.59 431.16 -27.09 431.24 C-29.34 431.37 -31.6 431.51 -33.85 431.65 C-41.34 432.1 -48.8 432.42 -56.31 432.31 C-55.83 433.24 -55.35 434.17 -54.85 435.13 C-54.21 436.38 -53.58 437.63 -52.94 438.88 C-52.62 439.48 -52.3 440.09 -51.98 440.72 C-46.08 452.33 -46.14 462.51 -49.99 474.82 C-55.75 490.03 -67.1 503.19 -81.96 510.07 C-97.08 516.62 -111.45 518.32 -127.31 513.31 C-137.91 508.78 -147.61 502.07 -152.52 491.37 C-152.78 490.69 -153.04 490.01 -153.31 489.31 C-153.67 488.43 -154.02 487.54 -154.39 486.63 C-158.16 473.1 -155.17 459.34 -148.67 447.25 C-145.23 441.53 -141.3 436.75 -136.31 432.31 C-138.68 429.94 -139.28 430.03 -142.52 429.86 C-143.84 429.77 -143.84 429.77 -145.2 429.68 C-146.65 429.59 -146.65 429.59 -148.12 429.5 C-159.05 428.71 -169.7 427.01 -180.46 424.99 C-191.21 423 -199.25 423.26 -209.88 425.88 C-212.17 426.42 -214.47 426.97 -216.76 427.52 C-217.98 427.81 -219.19 428.1 -220.44 428.4 C-227.34 430.03 -234.27 431.57 -241.19 433.12 C-243.81 433.71 -246.43 434.3 -249.05 434.89 C-250.17 435.14 -251.28 435.39 -252.43 435.65 C-254.14 436.04 -255.85 436.45 -257.55 436.89 C-261.41 437.82 -265.39 437.79 -269.31 437.31 C-272.25 435.52 -273.78 434.37 -275.31 431.31 C-275.72 426.68 -275.19 424.01 -272.31 420.31 C-269.58 418.71 -267.03 417.91 -263.94 417.3 C-263.05 417.13 -262.17 416.95 -261.25 416.76 C-259.8 416.48 -259.8 416.48 -258.31 416.19 C-247.28 413.96 -236.3 411.57 -225.31 409.12 C-224.53 408.95 -223.74 408.78 -222.93 408.6 C-220.66 408.09 -218.39 407.59 -216.12 407.08 C-215.45 406.93 -214.78 406.78 -214.09 406.63 C-210.73 405.88 -207.38 405.08 -204.04 404.22 C-193.73 401.71 -183.5 403.41 -173.3 405.51 C-156.62 409.52 -156.62 409.52 -140.31 407.31 C-140.31 407.97 -140.31 408.63 -140.31 409.31 C-120.89 410.92 -101.64 411.65 -82.15 411.57 C-80.08 411.56 -78.02 411.56 -75.95 411.55 C-55.35 411.5 -34.85 411.17 -14.31 409.31 C-13.5 409.24 -12.68 409.17 -11.84 409.09 C-5.5 408.53 0.85 407.93 7.19 407.31 C8.05 407.23 8.91 407.15 9.79 407.06 C17.8 406.27 25.72 405.48 33.58 403.75 C37.07 403.03 40.59 402.68 44.12 402.31 C49.97 401.67 55.72 400.86 61.49 399.68 C63.69 399.31 63.69 399.31 67.69 399.31 C67.69 398.32 67.69 397.33 67.69 396.31 C68.93 396.6 68.93 396.6 70.19 396.9 C74.27 397.38 77.68 396.78 81.62 395.88 C82.42 395.7 83.22 395.52 84.04 395.34 C92.21 393.5 100.32 391.44 108.44 389.38 C110.35 388.89 110.35 388.89 112.31 388.39 C120.08 386.38 127.68 384.06 135.27 381.47 C138.9 380.24 142.54 379.11 146.2 377.99 C153.02 375.92 159.55 373.7 165.97 370.58 C168.6 369.35 171.26 368.28 173.97 367.24 C192.38 360.13 214.56 350.44 228.69 336.31 C228.81 334.9 228.87 333.48 228.89 332.07 C228.91 331.17 228.93 330.27 228.95 329.34 C228.97 328.36 228.99 327.38 229 326.37 C229.02 325.37 229.05 324.38 229.07 323.35 C229.13 320.15 229.19 316.95 229.25 313.75 C229.29 311.59 229.34 309.42 229.38 307.26 C229.49 301.94 229.59 296.63 229.69 291.31 C228.48 291.46 227.27 291.6 226.03 291.75 C212.88 293.25 200.02 293.47 186.81 293.2 C172.77 292.92 159.36 293.42 146.44 299.62 C145.77 299.93 145.1 300.24 144.42 300.56 C142.5 301.46 140.59 302.38 138.69 303.31 C137.72 303.78 136.76 304.24 135.76 304.71 C121.35 312.08 109.07 323.13 97.02 333.78 C79.51 349.23 63.53 357.41 39.95 356.55 C26.34 355.57 12.69 352.18 -0.32 348.16 C-4.49 346.98 -8.7 346.32 -12.98 345.71 C-15.31 345.31 -15.31 345.31 -17.31 344.31 C-47.7 341.01 -76.15 346.35 -103.38 360.38 C-127.31 372.65 -148.39 371.12 -174 365.44 C-176.45 364.9 -178.9 364.37 -181.34 363.84 C-183.67 363.33 -185.99 362.82 -188.31 362.31 C-191.87 361.53 -195.44 360.76 -199 360 C-199.72 359.84 -200.44 359.68 -201.19 359.52 C-220.82 355.32 -243.46 354.65 -262.04 362.96 C-265.82 364.52 -267.45 364.49 -271.31 363.31 C-276.01 360.91 -276.01 360.91 -277.31 358.31 C-277.57 355.13 -277.34 352.34 -276.31 349.31 C-273.94 347 -271.3 345.7 -268.31 344.31 C-267.4 343.82 -266.5 343.32 -265.56 342.81 C-239.39 330.74 -205.56 336.73 -178.85 343.68 C-155.36 349.72 -134.39 354.39 -112.14 342.27 C-109.25 340.76 -106.23 339.62 -103.19 338.44 C-101.09 337.62 -98.99 336.77 -96.9 335.9 C-67.37 323.69 -36.9 319.4 -5.38 326.56 C-4.39 326.78 -3.4 327 -2.38 327.23 C4.25 328.71 10.85 330.33 17.44 332 C20.52 332.78 23.6 333.55 26.69 334.31 C27.68 334.56 28.68 334.81 29.71 335.07 C41.25 337.59 56.35 338.8 66.69 332.31 C73.69 327.61 80 322.25 86.2 316.56 C90.55 312.63 95.11 308.97 99.69 305.31 C100.71 304.48 101.73 303.66 102.78 302.8 C110.34 296.76 118.19 291.92 126.69 287.31 C128.09 286.49 128.09 286.49 129.52 285.66 C143.42 277.65 157.59 274.02 173.51 274.04 C175.78 274.02 178.05 274 180.32 273.98 C183.84 273.95 187.36 273.94 190.89 273.93 C210.38 273.88 228.2 273.6 243.06 259.31 C247.56 254.54 251.55 250.15 251.69 243.31 C250.25 239.14 248.53 235.7 245.69 232.31 C240.55 232.94 236.28 235.26 231.69 237.5 C229.98 238.32 228.27 239.14 226.55 239.96 C225.72 240.37 224.89 240.77 224.03 241.18 C215.75 245.17 207.44 248.88 198.84 252.11 C195.94 253.22 193.1 254.4 190.25 255.62 C158.49 268.86 125 277.95 91.69 286.31 C90.72 286.56 89.75 286.8 88.75 287.05 C73.24 290.91 57.48 293.7 41.77 296.64 C40.86 296.8 39.96 296.97 39.03 297.15 C37.31 297.47 35.59 297.79 33.87 298.11 C30.73 298.69 27.72 299.3 24.69 300.31 C22.24 300.64 19.8 300.93 17.34 301.19 C10.67 301.94 4.02 302.79 -2.62 303.71 C-24.82 306.79 -46.96 309.56 -69.31 311.17 C-71.27 311.31 -73.23 311.47 -75.19 311.62 C-96.24 313.29 -117.3 313.52 -138.4 313.56 C-140.52 313.56 -142.63 313.57 -144.75 313.58 C-160.04 313.63 -175.28 313.36 -190.55 312.42 C-192.49 312.31 -192.49 312.31 -194.46 312.19 C-205.09 311.47 -215.53 309.99 -225.95 307.8 C-227.54 307.47 -229.13 307.17 -230.72 306.88 C-235.7 305.94 -239.56 304.92 -243.31 301.31 C-244.85 297.85 -245.74 294.3 -246.62 290.62 C-247.12 288.7 -247.61 286.78 -248.11 284.86 C-248.32 284.01 -248.53 283.17 -248.74 282.29 C-249.14 280.33 -249.14 280.33 -250.31 279.31 C-252.01 279.78 -252.01 279.78 -253.75 280.25 C-258.67 281.4 -263.47 281.61 -268.5 281.69 C-269.66 281.73 -269.66 281.73 -270.84 281.77 C-276.11 281.78 -279.17 280.86 -283.31 277.31 C-284.69 273.59 -284.51 271.86 -283.19 268.12 C-281.09 264.97 -279.69 263.96 -276.31 262.31 C-273.29 261.94 -273.29 261.94 -269.94 261.88 C-258.73 261.29 -248.39 258.26 -238.31 253.31 C-239.01 252.97 -239.72 252.63 -240.44 252.28 C-250.18 247.31 -256.81 242.13 -260.72 231.71 C-261.35 229.15 -261.35 226.93 -261.31 224.31 C-260.76 224.21 -260.21 224.1 -259.65 223.99 C-253.26 222.73 -246.89 221.37 -240.53 220 C-215.34 214.59 -190.06 209.71 -164.72 205.09 C-156.54 203.58 -148.42 201.85 -140.29 200.04 C-134.31 198.72 -128.34 197.56 -122.3 196.55 C-114.92 195.29 -107.59 193.79 -100.25 192.31 C-84.52 189.14 -84.52 189.14 -76.94 187.75 C-70.41 186.55 -63.93 185.19 -57.44 183.81 C-50.54 182.36 -43.65 180.97 -36.69 179.88 C-24.75 177.99 -12.93 175.48 -1.09 173.08 C3.6 172.13 8.3 171.19 12.99 170.26 C20.4 168.79 27.81 167.31 35.19 165.69 C40.54 164.52 45.91 163.57 51.31 162.65 C59.95 161.15 68.52 159.3 77.1 157.47 C82.79 156.27 88.46 155.16 94.22 154.31 C101.01 153.31 107.68 151.87 114.38 150.38 C122.8 148.53 131.2 146.81 139.73 145.5 C148.06 144.17 156.28 142.3 164.51 140.47 C171.18 139 177.83 137.79 184.6 136.81 C187.52 136.34 190.38 135.76 193.27 135.1 C194.14 134.91 195.01 134.72 195.9 134.52 C197.66 134.13 199.41 133.71 201.15 133.29 C206.65 132.11 210.02 132.16 214.9 135.07 C222.13 140.12 230.32 146.43 232.12 155.5 C232.41 159.05 232.28 161.39 230.34 164.44 C228.86 166.17 227.35 167.77 225.69 169.31 C232.4 171.04 238.88 172.2 245.69 170.31 C248.75 168.17 248.75 168.17 250.69 165.31 C251.37 164.42 251.37 164.42 252.06 163.5 C253.38 158.89 252.6 155.14 250.51 150.96 C243.97 140.75 234.01 133.49 223.88 127.12 C223.28 126.74 222.68 126.35 222.06 125.95 C214.1 121.19 206.1 123.62 197.56 125.38 C195.26 125.83 192.96 126.29 190.66 126.75 C189.4 127 188.15 127.25 186.85 127.5 C182.25 128.41 177.64 129.25 173.02 130.1 C172.19 130.25 171.36 130.4 170.5 130.56 C167.17 131.17 163.84 131.77 160.5 132.38 C151.57 134 142.69 135.72 133.82 137.66 C129.24 138.62 124.63 139.34 120 140.06 C109.74 141.71 99.56 143.69 89.38 145.75 C78.62 147.93 67.86 150.07 57.06 152.06 C56.05 152.25 55.04 152.43 54 152.63 C49.76 153.4 45.52 154.17 41.26 154.9 C27.51 157.29 13.8 159.94 0.09 162.58 C-7.53 164.04 -15.15 165.5 -22.77 166.96 C-23.52 167.11 -24.28 167.25 -25.07 167.4 C-38.58 169.99 -52.1 172.54 -65.62 175.06 C-80.92 177.92 -96.22 180.81 -111.5 183.75 C-136.14 188.48 -160.79 193.13 -185.44 197.77 C-188.92 198.43 -192.4 199.08 -195.88 199.74 C-221.43 204.56 -221.43 204.56 -233.62 206.66 C-236.29 207.13 -238.94 207.63 -241.6 208.16 C-242.31 208.3 -243.03 208.44 -243.77 208.58 C-245.72 208.97 -247.68 209.37 -249.63 209.76 C-255.05 210.57 -259.64 211.07 -264.75 208.75 C-267.31 206.31 -267.31 206.31 -268.38 202.88 C-268.3 198.78 -268.03 197.36 -265.31 194.31 C-260 190.93 -254.8 189.58 -248.63 188.8 C-246.94 188.57 -245.26 188.32 -243.57 188.08 C-242.71 187.96 -241.84 187.83 -240.95 187.71 C-236.6 187.06 -232.29 186.25 -227.96 185.45 C-226.66 185.2 -226.66 185.2 -225.33 184.95 C-222.64 184.45 -219.94 183.94 -217.25 183.44 C-215.36 183.08 -213.48 182.73 -211.59 182.38 C-207 181.52 -202.41 180.65 -197.82 179.78 C-195.49 179.35 -193.17 178.91 -190.84 178.47 C-187.14 177.78 -183.45 177.08 -179.75 176.38 C-178.69 176.18 -177.64 175.98 -176.55 175.77 C-175.6 175.59 -174.66 175.41 -173.68 175.22 C-172.88 175.07 -172.07 174.92 -171.24 174.76 C-169.24 174.38 -169.24 174.38 -167.31 173.31 C-164.55 172.84 -161.8 172.41 -159.03 172 C-148.24 170.35 -137.52 168.36 -126.79 166.32 C-124.74 165.93 -122.69 165.55 -120.65 165.16 C-115.2 164.14 -109.76 163.11 -104.32 162.08 C-98.6 161 -92.88 159.92 -87.16 158.84 C-78.04 157.12 -68.92 155.39 -59.79 153.67 C-49.36 151.7 -38.92 149.73 -28.48 147.77 C-27.08 147.5 -25.67 147.24 -24.26 146.97 C-22.22 146.59 -20.17 146.2 -18.13 145.82 C-6.4 143.61 5.33 141.4 17.05 139.19 C20.27 138.58 23.5 137.97 26.72 137.36 C68.98 129.39 111.24 121.41 153.49 113.38 C157.23 112.67 160.97 111.96 164.71 111.25 C169.06 110.43 173.42 109.6 177.77 108.77 C179.36 108.47 180.96 108.17 182.55 107.86 C184.72 107.45 186.89 107.04 189.06 106.62 C190.28 106.39 191.49 106.16 192.74 105.93 C195.73 105.36 195.73 105.36 198.69 104.31 C176.23 71.15 146.42 49.34 108.24 37.14 C106.06 36.43 103.94 35.66 101.81 34.81 C87.89 29.58 73.25 27.07 58.69 24.31 C57.72 24.12 56.75 23.93 55.75 23.74 C50.39 22.72 45.2 22.02 39.75 21.75 C33.05 21.41 33.05 21.41 30.83 20.81 C28.21 20.2 25.8 20.16 23.11 20.14 C21.99 20.12 20.86 20.11 19.7 20.1 C18.48 20.09 17.26 20.08 16.01 20.07 C14.73 20.07 13.45 20.06 12.14 20.05 C9.42 20.03 6.69 20.02 3.97 20.02 C1.25 20.01 -1.48 19.99 -4.21 19.96 C-47.63 19.48 -89.54 27.05 -128.31 47.31 C-129.15 47.74 -129.98 48.18 -130.84 48.62 C-158.73 63.6 -184.79 85.3 -205.31 109.31 C-206.23 110.34 -207.14 111.37 -208.06 112.4 C-218.42 124.11 -227.94 136.68 -235.75 150.25 C-239.76 155.56 -246.05 156.46 -252.19 157.91 C-253.15 158.14 -254.11 158.37 -255.1 158.61 C-258.17 159.35 -261.24 160.08 -264.31 160.81 C-266.35 161.3 -268.38 161.79 -270.42 162.29 C-276.05 163.64 -281.68 164.98 -287.31 166.31 C-288.04 166.48 -288.76 166.66 -289.51 166.84 C-291.33 167.27 -293.15 167.7 -294.97 168.12 C-295.92 168.35 -296.87 168.57 -297.84 168.8 C-302.13 169.69 -306.01 170.43 -310.13 168.43 C-311.81 167.25 -311.81 167.25 -314.31 164.31 C-314.92 160.5 -314.73 158.26 -313.17 154.74 C-310.72 151.53 -308.87 151.06 -305 149.94 C-304.33 149.74 -303.66 149.54 -302.97 149.34 C-289.27 145.47 -275.13 141.98 -261.11 139.58 C-260.42 139.45 -259.74 139.33 -259.03 139.21 C-257.11 138.87 -255.19 138.55 -253.26 138.24 C-250.24 137.62 -250.24 137.62 -249.03 135.42 C-248.79 134.73 -248.55 134.03 -248.31 133.31 C-246.8 130.92 -245.26 128.55 -243.69 126.19 C-243.24 125.52 -242.8 124.85 -242.34 124.16 C-238.61 118.64 -234.56 113.45 -230.31 108.31 C-229.72 107.55 -229.14 106.79 -228.53 106.01 C-215.32 88.93 -199.42 72.48 -182.31 59.31 C-181.03 58.3 -179.74 57.28 -178.45 56.27 C-156.62 39.14 -132.52 24.71 -106.31 15.31 C-105.02 14.79 -105.02 14.79 -103.71 14.25 C-94.25 10.49 -84.22 8.51 -74.31 6.31 C-73.05 6.02 -71.79 5.73 -70.49 5.43 C-66.44 4.58 -62.4 3.9 -58.31 3.31 C-57.38 3.18 -56.44 3.04 -55.47 2.9 C-37.01 0.36 -18.62 0.02 0 0 Z " fill="#000000" transform="translate(699.3125,112.6875)"/>
<path d="M0 0 C3.25 -0.01 6.51 -0.04 9.76 -0.07 C29.14 -0.17 47.91 1.69 66.67 6.68 C67.81 6.96 68.95 7.25 70.12 7.55 C77.23 9.38 84.07 11.62 90.92 14.24 C92.23 14.72 93.54 15.2 94.86 15.68 C104.26 19.25 113.19 23.24 121.92 28.24 C121.92 28.9 121.92 29.56 121.92 30.24 C122.58 30.28 123.24 30.32 123.92 30.37 C127.59 31.44 129.83 33.27 132.76 35.67 C134.94 37.36 134.94 37.36 137.74 38.58 C141.57 40.58 144.56 43.04 147.8 45.87 C148.41 46.4 149.02 46.92 149.65 47.47 C161.63 58.01 161.63 58.01 164.92 65.24 C159.08 67.49 153.07 68.35 146.92 69.37 C145.01 69.69 143.1 70.01 141.19 70.34 C139.78 70.57 138.38 70.81 136.97 71.05 C126.91 72.74 116.85 74.49 106.8 76.24 C105.79 76.41 104.79 76.59 103.76 76.77 C91.36 78.92 78.98 81.13 66.61 83.45 C56.36 85.37 46.08 87.12 35.8 88.87 C23.65 90.94 11.51 93.06 -0.63 95.19 C-9.37 96.72 -18.1 98.25 -26.85 99.74 C-27.55 99.86 -28.25 99.98 -28.98 100.1 C-30.39 100.34 -31.81 100.58 -33.22 100.82 C-34.26 101 -34.26 101 -35.33 101.18 C-36.37 101.35 -36.37 101.35 -37.43 101.53 C-52.16 104.04 -66.85 106.72 -81.55 109.44 C-90.49 111.08 -99.43 112.64 -108.41 114.03 C-119.22 115.71 -129.99 117.63 -140.77 119.52 C-144.51 120.18 -148.25 120.83 -151.99 121.48 C-163.61 123.51 -175.21 125.59 -186.76 127.97 C-197.46 130.17 -208.19 131.48 -219.08 132.24 C-219.41 131.58 -219.74 130.92 -220.08 130.24 C-219.41 128.27 -219.41 128.27 -218.31 125.88 C-217.92 125.01 -217.52 124.14 -217.11 123.25 C-216.48 121.88 -216.48 121.88 -215.83 120.49 C-215.42 119.6 -215.01 118.7 -214.59 117.78 C-211.34 110.68 -207.98 103.85 -203.7 97.3 C-203.31 96.69 -202.91 96.08 -202.5 95.45 C-201.71 94.25 -200.93 93.05 -200.14 91.85 C-199.25 90.5 -198.37 89.14 -197.49 87.78 C-196.2 85.87 -196.2 85.87 -194.08 83.24 C-193.09 83.24 -192.1 83.24 -191.08 83.24 C-190.96 82.61 -190.84 81.99 -190.71 81.34 C-190.54 80.52 -190.38 79.71 -190.2 78.87 C-190.04 78.05 -189.88 77.24 -189.71 76.4 C-189.08 74.24 -189.08 74.24 -187.08 72.24 C-186.32 71.97 -185.55 71.7 -184.77 71.43 C-181.38 69.93 -179.6 67.94 -177.08 65.24 C-171.25 59.17 -164.86 54.2 -158.08 49.24 C-157.32 48.66 -156.56 48.08 -155.77 47.48 C-111.12 14.53 -54.73 0.1 0 0 Z " fill="#DF7203" transform="translate(704.07958984375,147.759765625)"/>
<path d="M0 0 C1.71 0.4 1.71 0.4 3.45 0.8 C4.54 1.05 5.62 1.31 6.73 1.57 C8.18 1.91 8.18 1.91 9.66 2.26 C12 3 12 3 14 5 C14.68 9.64 14.79 14.32 15 19 C15.08 20.15 15.15 21.3 15.23 22.49 C15.28 23.54 15.33 24.6 15.38 25.69 C15.42 26.64 15.47 27.59 15.52 28.57 C15 31 15 31 13.1 32.53 C12.08 33.01 11.05 33.5 10 34 C9.28 34.36 8.57 34.72 7.83 35.08 C5.23 36.38 2.62 37.63 0 38.88 C-0.94 39.32 -1.88 39.77 -2.85 40.23 C-8.85 43.06 -14.86 45.64 -21.09 47.93 C-24.12 49.04 -27.09 50.25 -30.06 51.5 C-31.04 51.91 -32.03 52.32 -33.04 52.75 C-35.02 53.58 -36.99 54.43 -38.96 55.29 C-44.95 57.85 -50.92 60 -57.16 61.85 C-60.07 62.71 -62.95 63.62 -65.84 64.56 C-79.79 69.09 -93.85 73.14 -108 77 C-109.47 77.41 -110.95 77.81 -112.42 78.22 C-119.25 80.09 -126.09 81.72 -133.02 83.15 C-137.01 83.99 -140.98 84.91 -144.96 85.84 C-154.41 88.03 -163.85 89.96 -173.42 91.56 C-176.55 92.09 -179.67 92.66 -182.79 93.22 C-184 93.44 -185.22 93.66 -186.48 93.89 C-188.88 94.33 -191.28 94.76 -193.68 95.2 C-207.58 97.7 -221.56 99.48 -235.58 101.18 C-238.23 101.5 -240.88 101.82 -243.53 102.14 C-247.85 102.67 -252.17 103.19 -256.5 103.7 C-258.15 103.9 -259.8 104.1 -261.45 104.29 C-271.07 105.45 -280.61 106.31 -290.31 106.56 C-296.52 106.74 -302.7 106.95 -308.9 107.5 C-316.6 108.11 -324.28 108.16 -332 108.17 C-333.53 108.17 -335.05 108.17 -336.58 108.18 C-339.77 108.18 -342.96 108.19 -346.15 108.19 C-349.35 108.19 -352.56 108.19 -355.76 108.21 C-379.92 108.31 -403.96 107.94 -427.94 104.62 C-428.68 104.52 -429.42 104.42 -430.18 104.32 C-434.95 103.54 -438.3 102.12 -442 99 C-443.02 96.82 -443.02 96.82 -443.38 94.56 C-443.51 93.82 -443.64 93.08 -443.77 92.32 C-444.01 89.86 -444.04 87.46 -444 85 C-411.49 68.36 -387.32 60.9 -351 71 C-349 71.66 -347 72.32 -345 73 C-337.89 75 -330.72 75.23 -323.38 75.31 C-322.49 75.33 -321.61 75.35 -320.7 75.37 C-301.38 75.35 -284.82 61.75 -270.12 50.56 C-253.18 37.74 -233.88 23.65 -212 22 C-211.02 21.92 -211.02 21.92 -210.03 21.84 C-195.62 21.25 -180.84 25.34 -166.9 28.57 C-142.81 34.07 -116.32 35.03 -94 23 C-93.04 22.53 -92.07 22.06 -91.08 21.58 C-83.39 17.71 -76.67 12.97 -69.76 7.86 C-45.88 -9.66 -27.94 -6.72 0 0 Z " fill="#DF7203" transform="translate(913,299)"/>
<path d="M0 0 C14.29 11.94 14.29 11.94 15.43 19.04 C15.68 23.43 15.38 26.57 12.81 30.24 C10.81 32.23 9.67 33.03 6.87 33.46 C-0.35 33.01 -7.56 30.9 -14.57 29.15 C-31.73 24.98 -50.55 22.82 -66.43 32.14 C-70 34.34 -73.44 36.71 -76.88 39.12 C-77.74 39.72 -78.6 40.32 -79.49 40.94 C-81.09 42.06 -82.68 43.18 -84.27 44.3 C-101.6 56.36 -116.94 64.55 -138.57 64.43 C-139.62 64.42 -140.68 64.42 -141.77 64.41 C-150.46 64.28 -158.42 63.14 -166.88 61.12 C-199.31 52.75 -199.31 52.75 -231.88 57.12 C-232.93 57.46 -233.99 57.81 -235.07 58.16 C-236.18 58.54 -237.3 58.92 -238.44 59.3 C-240.08 59.85 -240.08 59.85 -241.76 60.41 C-252.38 64.51 -261.94 70.92 -271.25 77.37 C-272.34 78.11 -273.43 78.86 -274.55 79.62 C-281.08 84.12 -287.52 88.74 -293.88 93.49 C-307.13 103.3 -318.06 108.92 -334.88 107.12 C-342.29 105.78 -349.57 103.79 -356.85 101.9 C-376.87 96.75 -394.94 94.79 -414.88 101.12 C-416.65 101.68 -416.65 101.68 -418.46 102.25 C-428.08 105.51 -437.93 109.46 -446.61 114.8 C-449.98 116.76 -452.02 116.62 -455.88 116.12 C-464.05 113.23 -471.1 108.28 -475.26 100.55 C-477.12 96.19 -477.95 92.86 -477.88 88.12 C-477.33 88.01 -476.78 87.9 -476.21 87.79 C-469.83 86.53 -463.46 85.18 -457.1 83.81 C-431.91 78.4 -406.63 73.51 -381.29 68.89 C-373.1 67.39 -364.98 65.65 -356.86 63.85 C-350.88 62.53 -344.9 61.37 -338.86 60.35 C-331.48 59.09 -324.15 57.6 -316.82 56.12 C-301.08 52.94 -301.08 52.94 -293.5 51.55 C-286.98 50.36 -280.49 48.99 -274 47.62 C-267.11 46.16 -260.22 44.78 -253.25 43.68 C-241.32 41.79 -229.5 39.28 -217.66 36.88 C-212.96 35.93 -208.27 35 -203.58 34.07 C-196.17 32.59 -188.76 31.11 -181.38 29.49 C-176.03 28.33 -170.65 27.37 -165.26 26.45 C-156.62 24.95 -148.05 23.1 -139.47 21.27 C-133.78 20.07 -128.1 18.96 -122.34 18.12 C-115.55 17.12 -108.89 15.67 -102.19 14.18 C-93.76 12.33 -85.36 10.61 -76.84 9.3 C-68.51 7.98 -60.29 6.11 -52.06 4.27 C-45.37 2.8 -38.7 1.59 -31.91 0.6 C-26.75 -0.22 -21.68 -1.46 -16.61 -2.73 C-10.14 -4.22 -5.72 -3.74 0 0 Z " fill="#59A402" transform="translate(915.87890625,248.8828125)"/>
<path d="M0 0 C4.35 3.29 7.51 7.11 10.44 11.69 C8.9 16.02 5.6 18.17 2 20.75 C1.33 21.23 0.66 21.71 -0.02 22.21 C-20.7 36.82 -44.78 49.15 -68.2 58.71 C-71.16 59.93 -74.09 61.21 -77.02 62.48 C-94.25 69.88 -111.57 75.67 -129.71 80.53 C-131.19 80.93 -131.19 80.93 -132.71 81.34 C-133.6 81.58 -134.48 81.81 -135.4 82.05 C-137.58 82.62 -137.58 82.62 -139.56 83.69 C-140.22 83.36 -140.88 83.03 -141.56 82.69 C-141.56 83.68 -141.56 84.67 -141.56 85.69 C-162.81 90.06 -162.81 90.06 -173.55 90.41 C-176.63 90.59 -176.63 90.59 -179.74 91.64 C-183.75 92.74 -187.67 93.29 -191.8 93.69 C-192.58 93.77 -193.37 93.85 -194.18 93.93 C-196.74 94.19 -199.31 94.44 -201.88 94.69 C-202.77 94.77 -203.67 94.86 -204.59 94.95 C-210.91 95.56 -217.24 96.13 -223.56 96.69 C-224.28 96.75 -225 96.82 -225.74 96.88 C-247.14 98.81 -268.54 98.87 -290 98.88 C-291.03 98.88 -291.03 98.88 -292.09 98.88 C-336.46 98.91 -336.46 98.91 -349.56 95.69 C-348.58 89.54 -342.96 86.49 -338.27 82.96 C-321.8 71.18 -304.36 62.07 -285.56 54.69 C-284.65 54.3 -283.73 53.92 -282.79 53.52 C-280.21 52.56 -277.74 52.31 -275.02 52.04 C-272.07 51.62 -269.26 50.9 -266.38 50.19 C-243.61 45.28 -219.84 48.02 -197.29 52.79 C-187.44 54.76 -177.65 54.87 -167.62 54.88 C-165.68 54.89 -165.68 54.89 -163.71 54.91 C-136.07 54.95 -114.97 41.9 -94.99 23.82 C-69.83 1.74 -32.52 -21.26 0 0 Z " fill="#DF7203" transform="translate(908.5625,426.3125)"/>
<path d="M0 0 C1.71 0.4 1.71 0.4 3.45 0.8 C4.54 1.05 5.62 1.31 6.73 1.57 C8.18 1.91 8.18 1.91 9.66 2.26 C12 3 12 3 14 5 C14.2 8.26 14.2 8.26 14.12 12.12 C14.11 13.41 14.09 14.69 14.07 16.01 C14.05 17 14.02 17.98 14 19 C13.67 19 13.34 19 13 19 C13 15.7 13 12.4 13 9 C-18.28 7.71 -44.85 16.81 -72.03 31.92 C-99.37 46.92 -99.37 46.92 -110 46 C-111.49 46.5 -111.49 46.5 -113 47 C-115.82 47.81 -118.31 48.13 -121.24 48.13 C-122.07 48.13 -122.9 48.14 -123.75 48.14 C-125.09 48.14 -125.09 48.14 -126.45 48.13 C-127.37 48.13 -128.3 48.13 -129.25 48.14 C-131.21 48.14 -133.17 48.13 -135.12 48.13 C-138.09 48.13 -141.06 48.13 -144.03 48.14 C-145.94 48.14 -147.85 48.13 -149.76 48.13 C-151.07 48.14 -151.07 48.14 -152.41 48.14 C-157.53 48.12 -162.53 47.79 -167.62 47.23 C-171.19 46.88 -174.74 46.8 -178.32 46.76 C-179.07 46.75 -179.82 46.75 -180.59 46.74 C-182.17 46.72 -183.74 46.71 -185.31 46.7 C-186.89 46.69 -188.46 46.67 -190.04 46.64 C-205.68 46.35 -218.68 49.44 -233 56 C-233.63 56.29 -234.25 56.57 -234.9 56.87 C-239.2 58.85 -243.49 60.86 -247.77 62.88 C-250 63.94 -252.22 64.98 -254.45 66.03 C-255.9 66.72 -257.36 67.4 -258.81 68.09 C-259.52 68.42 -260.23 68.76 -260.96 69.11 C-265.13 71.08 -269.23 73.14 -273.32 75.27 C-279.02 78.14 -284.81 80.06 -290.94 81.81 C-291.94 82.11 -292.94 82.41 -293.97 82.72 C-301 84.79 -307.3 86.16 -314.66 86.2 C-315.4 86.21 -316.14 86.22 -316.9 86.22 C-319.29 86.24 -321.67 86.25 -324.06 86.25 C-324.87 86.25 -325.68 86.25 -326.52 86.26 C-339.69 86.26 -352.37 85.5 -365.23 82.48 C-370.19 81.32 -374.97 80.57 -380.06 80.31 C-380.79 80.27 -381.52 80.24 -382.28 80.2 C-401.63 79.37 -424.39 82.2 -442 91 C-442 90.34 -442 89.68 -442 89 C-442.66 89 -443.32 89 -444 89 C-443.76 86.65 -443.76 86.65 -443 84 C-441.2 82.61 -441.2 82.61 -438.84 81.54 C-437.97 81.13 -437.1 80.73 -436.21 80.31 C-435.27 79.9 -434.34 79.49 -433.38 79.06 C-431.95 78.41 -431.95 78.41 -430.49 77.75 C-427.67 76.47 -424.84 75.23 -422 74 C-421.26 73.67 -420.51 73.35 -419.75 73.01 C-393.81 61.68 -371.39 64.05 -345 73 C-337.89 75 -330.72 75.23 -323.38 75.31 C-322.49 75.33 -321.61 75.35 -320.7 75.37 C-301.38 75.35 -284.82 61.75 -270.12 50.56 C-253.18 37.74 -233.88 23.65 -212 22 C-211.02 21.92 -211.02 21.92 -210.03 21.84 C-195.62 21.25 -180.84 25.34 -166.9 28.57 C-142.81 34.07 -116.32 35.03 -94 23 C-93.04 22.53 -92.07 22.06 -91.08 21.58 C-83.39 17.71 -76.67 12.97 -69.76 7.86 C-45.88 -9.66 -27.94 -6.72 0 0 Z " fill="#EED55F" transform="translate(913,299)"/>
<path d="M0 0 C0.95 -0.03 1.9 -0.06 2.88 -0.09 C5.44 0.5 5.44 0.5 7.02 2.59 C8.67 5.97 9.21 8.87 9.75 12.59 C9.86 13.26 9.96 13.93 10.06 14.62 C10.39 16.75 10.69 18.87 11 21 C11.31 23.13 11.63 25.25 11.95 27.38 C12.24 29.31 12.52 31.24 12.8 33.17 C13.38 36.18 14.18 38.71 15.44 41.5 C23.81 41.79 32.09 41.34 40.44 40.69 C41.44 40.62 42.44 40.55 43.48 40.48 C48.61 40.04 52.15 39.57 56.44 36.5 C60 36 60 36 63.44 36.5 C66.35 38.72 67.27 40.5 67.86 44.11 C68.03 45.99 68.17 47.89 68.26 49.78 C68.43 52.44 68.9 54.9 69.44 57.5 C69.44 58.49 69.44 59.48 69.44 60.5 C69.51 62.45 69.59 64.4 69.67 66.35 C69.8 69.65 69.91 72.96 70.03 76.26 C70.09 78 70.16 79.74 70.24 81.48 C70.34 83.99 70.43 86.51 70.51 89.02 C70.57 90.18 70.57 90.18 70.62 91.37 C70.75 95.98 70.31 98.84 67.44 102.5 C64.23 104.82 61.32 104.9 57.44 104.5 C55.3 103.48 55.3 103.48 53.44 101.5 C52.94 98.7 52.69 96.25 52.61 93.43 C52.57 92.63 52.53 91.84 52.49 91.02 C52.37 88.47 52.28 85.92 52.19 83.38 C52.11 81.68 52.03 79.99 51.95 78.3 C51.61 70.69 51.4 63.11 51.44 55.5 C46.76 55.76 42.07 56.03 37.39 56.3 C35.8 56.39 34.21 56.48 32.61 56.57 C30.33 56.7 28.04 56.83 25.75 56.96 C24.68 57.02 24.68 57.02 23.58 57.08 C20.22 57.01 20.22 57.01 17.44 58.5 C17.16 64.67 17.94 70.42 18.94 76.5 C19.95 83.19 20.77 89.79 20.88 96.56 C20.89 97.81 20.91 99.06 20.93 100.35 C20.44 103.5 20.44 103.5 18.69 105.91 C16.17 107.69 14.99 108.02 11.94 107.94 C11.18 107.94 10.43 107.93 9.66 107.93 C6.78 107.37 5.54 106.55 3.44 104.5 C2.74 101.6 2.74 101.6 2.46 98.07 C2.35 96.78 2.23 95.49 2.12 94.16 C2.01 92.79 1.91 91.43 1.81 90.06 C1.6 87.42 1.37 84.77 1.15 82.13 C1.04 80.85 0.93 79.57 0.82 78.25 C0.28 72.96 -0.58 67.73 -1.56 62.5 C-4.73 61.48 -6.68 61.55 -9.86 62.46 C-10.68 62.69 -11.49 62.91 -12.33 63.14 C-13.17 63.38 -14.01 63.63 -14.88 63.88 C-23.81 66.4 -23.81 66.4 -28.51 67.02 C-32.57 67.66 -33.81 69.53 -36.56 72.5 C-41.09 75.21 -45.31 76.14 -50.48 76.67 C-51.22 76.75 -51.96 76.84 -52.72 76.92 C-55.06 77.19 -57.41 77.44 -59.75 77.69 C-61.34 77.87 -62.92 78.04 -64.51 78.22 C-75.89 79.5 -75.89 79.5 -79.56 79.5 C-79.02 82.86 -78.35 84.92 -75.57 86.98 C-66.93 91.83 -59.89 92.62 -50.31 89.94 C-44.39 88.03 -39.41 85.29 -34.22 81.89 C-31.37 80.4 -29.72 80.2 -26.56 80.5 C-22.53 86.73 -22.53 86.73 -22.66 90.02 C-24.42 94.84 -29.35 96.91 -33.56 99.5 C-34.17 99.89 -34.78 100.29 -35.41 100.7 C-45.43 106.48 -59.34 109.02 -70.56 106.5 C-79.47 103.9 -89.42 99.47 -94.56 91.43 C-95.69 89.25 -96.59 87.03 -97.5 84.75 C-99.31 80.34 -101.31 79.58 -105.56 77.5 C-106.77 73.67 -106.91 71.48 -105.56 67.69 C-103.56 65.5 -103.56 65.5 -100.25 64.75 C-94.85 62.92 -93.43 59.21 -90.56 54.5 C-84.22 45.36 -75.05 40.16 -64.27 37.93 C-56.1 36.62 -47.14 37.56 -40.05 42.12 C-36.61 45 -34.31 46.95 -33.56 51.5 C-32.9 51.5 -32.24 51.5 -31.56 51.5 C-31.56 52.16 -31.56 52.82 -31.56 53.5 C-30.69 53.17 -29.82 52.85 -28.92 52.51 C-21.22 49.68 -13.58 47.31 -5.56 45.5 C-4.46 42.13 -4.68 39.69 -5.3 36.22 C-5.48 35.21 -5.66 34.21 -5.85 33.17 C-6.04 32.12 -6.24 31.08 -6.44 30 C-6.62 28.95 -6.81 27.91 -7 26.83 C-7.94 21.56 -7.94 21.56 -9.11 16.34 C-9.72 13.86 -9.81 11.49 -9.88 8.94 C-9.93 7.51 -9.93 7.51 -9.99 6.06 C-9.56 3.5 -9.56 3.5 -7.89 1.69 C-5.1 0.26 -3.13 0.03 0 0 Z " fill="#000000" transform="translate(808.5625,672.5)"/>
<path d="M0 0 C9.18 6.47 16 15.6 18.62 26.62 C20.02 39.21 18.77 50.54 10.88 60.82 C3.46 69.46 -6.63 74.63 -18 76 C-20.43 76.08 -22.82 76.07 -25.25 75.97 C-27.03 75.8 -27.03 75.8 -28 77 C-27.82 85.76 -26.67 94.55 -25.66 103.25 C-25.11 108.2 -24.7 113.02 -25 118 C-28.17 121.09 -30.26 121.9 -34.62 122.5 C-38.63 121.91 -39.5 121.1 -42 118 C-42.71 115.47 -42.71 115.47 -43.01 112.65 C-43.13 111.63 -43.25 110.62 -43.37 109.57 C-43.47 108.52 -43.58 107.46 -43.69 106.38 C-43.92 104.28 -44.15 102.18 -44.39 100.09 C-44.48 99.16 -44.58 98.23 -44.67 97.27 C-44.88 94.97 -44.88 94.97 -46 93 C-46.28 91.05 -46.55 89.09 -46.8 87.14 C-48.2 76.1 -50.24 65.22 -52.44 54.31 C-52.59 53.55 -52.74 52.79 -52.9 52 C-54.89 42.16 -56.97 32.34 -59.37 22.59 C-60.11 18.39 -60.45 14.25 -60 10 C-57.84 7.12 -55.35 6.74 -51.94 6.12 C-48 6 -48 6 -46.06 7.19 C-44.93 9.13 -44.38 10.79 -44 13 C-43.34 13 -42.68 13 -42 13 C-41.67 13.66 -41.34 14.32 -41 15 C-40.71 14.34 -40.42 13.67 -40.12 12.99 C-36.66 5.54 -33.16 0.6 -25.17 -2.5 C-17.05 -4.38 -7.48 -3.81 0 0 Z " fill="#010100" transform="translate(679,704)"/>
<path d="M0 0 C1.89 0.03 1.89 0.03 3.81 0.06 C10.25 9.82 11.29 21.22 12.44 32.62 C12.68 34.92 12.92 37.21 13.16 39.5 C13.32 41 13.32 41 13.47 42.53 C13.75 45.18 13.75 45.18 14.81 48.06 C15.45 47.38 16.09 46.7 16.75 46 C25 37.79 32.99 32.7 44.82 32 C51.7 32.14 57.18 34.5 62.18 39.21 C69.69 47.76 73.45 57.99 73.1 69.32 C72.03 79.51 67.85 86.96 60.02 93.52 C53.95 97.77 47.09 98.94 39.81 98.06 C32.53 96.73 26.71 93.49 20.48 89.59 C18.15 88.26 16.46 87.36 13.81 87.06 C12.47 88.06 11.14 89.06 9.81 90.06 C7.38 90.56 7.38 90.56 4.81 90.06 C1.42 87.43 -0.43 85.38 -1.07 81.16 C-1.22 79.63 -1.34 78.1 -1.45 76.56 C-1.52 75.74 -1.59 74.91 -1.67 74.06 C-1.82 72.31 -1.97 70.55 -2.1 68.79 C-2.38 65.14 -2.71 61.49 -3.04 57.85 C-3.2 56.05 -3.36 54.25 -3.51 52.45 C-4.09 45.88 -4.83 39.34 -5.81 32.81 C-5.93 32.01 -6.05 31.2 -6.18 30.37 C-6.86 25.97 -7.61 21.58 -8.38 17.19 C-10.02 7.49 -10.02 7.49 -8.38 2.69 C-6.23 -0.25 -3.35 -0.05 0 0 Z " fill="#000000" transform="translate(251.1875,670.9375)"/>
<path d="M0 0 C8.44 6.73 13.96 16.73 15.32 27.41 C15.73 37.71 13.02 45.44 6.31 53.25 C-1.78 61.61 -10.68 66.61 -22.44 67.06 C-33.26 67.17 -43.3 62.22 -51.31 55.06 C-57.39 47.95 -58.59 40.13 -58.47 31.06 C-58.52 27.15 -58.91 25.61 -61.47 22.58 C-62.33 21.87 -63.18 21.17 -64.06 20.44 C-64.72 19.78 -65.38 19.12 -66.06 18.44 C-65.98 14.62 -65.45 12.87 -62.9 10 C-59.98 7.36 -57.05 5.35 -53.69 3.31 C-52.61 2.65 -51.53 1.99 -50.41 1.3 C-34.96 -7.3 -15.31 -10.34 0 0 Z " fill="#000000" transform="translate(394.0625,713.5625)"/>
<path d="M0 0 C4.26 3.59 7.43 7.38 8.32 13.02 C8.51 16.49 8.27 18.61 6.31 21.5 C3.59 23.26 2.17 23.13 -1 23 C-0.98 35.95 -0.98 35.95 3 48 C5.94 50.32 7.45 51.01 11.23 50.93 C13.5 50.6 15.77 50.27 18.04 49.93 C21 50 21 50 22.96 51.66 C24.29 54.66 24.14 55.94 23 59 C18.26 64.53 13.02 67.91 5.75 68.5 C0.11 68.39 -3.85 65.63 -8 62 C-10.56 59.1 -11.66 56.47 -12.69 52.75 C-13.06 51.41 -13.06 51.41 -13.45 50.05 C-13.63 49.37 -13.81 48.7 -14 48 C-14.99 48 -15.98 48 -17 48 C-18.53 49.54 -18.53 49.54 -20 51.56 C-26.6 59.41 -37.08 65.84 -47.34 67.34 C-54.19 67.63 -59.72 65.94 -64.94 61.5 C-69.32 56.18 -68.53 49.56 -68 43 C-64.38 27.96 -52.47 14.55 -40 6 C-37.44 4.44 -34.83 2.99 -32.19 1.56 C-31.55 1.22 -30.92 0.88 -30.27 0.53 C-21.21 -4.18 -8.99 -5.43 0 0 Z " fill="#000000" transform="translate(600,706)"/>
<path d="M0 0 C4.76 4.22 9.52 9.68 10.24 16.2 C10.37 20.56 10.04 24.04 8 28 C7.34 28 6.68 28 6 28 C6 28.66 6 29.32 6 30 C-1.81 34.99 -10.39 35.3 -19.38 36.19 C-21.73 36.43 -24.08 36.68 -26.43 36.93 C-27.88 37.09 -29.34 37.24 -30.79 37.38 C-34.52 37.73 -34.52 37.73 -38 39 C-37.83 41.41 -37.83 41.41 -37 44 C-35.09 45.64 -35.09 45.64 -32.69 46.75 C-31.91 47.16 -31.13 47.56 -30.32 47.98 C-21.79 51.71 -13.49 49.98 -5 47 C-0.72 45.14 3.41 43.21 7.13 40.38 C9 39 9 39 11.5 38.5 C14 39 14 39 16.38 41.06 C18 44 18 44 18.38 47.38 C15.66 54.54 7.76 57.83 1.14 61.08 C-2.43 62.61 -6.08 63.5 -9.88 64.31 C-10.67 64.48 -11.46 64.65 -12.27 64.83 C-24.16 67.2 -34.52 64.65 -44.81 58.19 C-50.26 54.3 -54.43 50.29 -56.44 43.81 C-57.5 40.47 -58.63 39.23 -61.69 37.5 C-62.78 37 -63.87 36.51 -65 36 C-65.12 28.38 -65.12 28.38 -64 25 C-62.75 24.75 -61.5 24.49 -60.21 24.23 C-56.54 23.43 -56.1 23.13 -53.57 19.99 C-52.88 18.77 -52.21 17.55 -51.56 16.31 C-47.92 10.07 -44.27 5.8 -38 2 C-37.33 1.59 -36.66 1.19 -35.97 0.77 C-25.03 -5.23 -10.93 -6.66 0 0 Z " fill="#000000" transform="translate(1021,714)"/>
<path d="M0 0 C5.68 5.68 9.27 11.53 9.38 19.69 C9.09 30.78 4.42 37.66 -3.2 45.36 C-6.61 48.58 -9.75 51.03 -14 53 C-14.8 53.39 -15.59 53.78 -16.41 54.18 C-25.52 58.08 -35.94 58.79 -45.38 55.5 C-51.84 52.44 -57.61 48.11 -60.56 41.5 C-61.97 30.26 -59.94 21.54 -53.07 12.39 C-41.2 -1.3 -16.71 -11.38 0 0 Z " fill="#EED55F" transform="translate(878,512)"/>
<path d="M0 0 C5.44 5.74 9.13 11.98 9.48 19.99 C8.8 29.7 3.17 38.78 -3.69 45.44 C-13.92 53.98 -24.29 57.55 -37.52 56.95 C-45.41 56.23 -52.09 52.61 -57.38 46.75 C-62.01 40.8 -61.2 33.62 -60.69 26.44 C-58.79 16.27 -50.16 7.25 -41.88 1.44 C-28.85 -5.67 -13.07 -7.6 0 0 Z " fill="#EED55F" transform="translate(623.6875,552.5625)"/>
<path d="M0 0 C2.78 0.57 2.78 0.57 4.36 2.16 C6.19 5.28 6.61 8 7.16 11.56 C7.27 12.23 7.38 12.9 7.49 13.59 C7.71 15.01 7.93 16.42 8.14 17.84 C8.46 20 8.8 22.15 9.15 24.3 C10.92 35.69 10.92 35.69 10.78 40.57 C18.25 43.06 27.07 41.51 34.8 40.79 C39.46 40.44 44.11 40.48 48.78 40.57 C51.8 45.76 51.8 45.76 51.71 49.19 C50.52 52.22 49.34 53.54 46.78 55.57 C44.19 56.05 41.98 56.31 39.39 56.39 C38.68 56.43 37.98 56.47 37.25 56.51 C35.01 56.63 32.77 56.72 30.53 56.82 C29 56.89 27.48 56.97 25.96 57.05 C22.23 57.24 18.5 57.41 14.78 57.57 C15.35 67.62 16.33 77.46 17.85 87.42 C19.69 100.38 19.69 100.38 16.28 106.07 C12.63 108.26 8.92 108.56 4.78 107.57 C2.57 106.17 2.57 106.17 0.78 103.57 C0.03 100.19 -0.15 96.82 -0.35 93.38 C-0.49 91.4 -0.64 89.42 -0.79 87.44 C-0.86 86.46 -0.93 85.47 -1 84.45 C-1.32 80.25 -1.75 76.07 -2.22 71.88 C-2.33 70.83 -2.33 70.83 -2.44 69.76 C-2.83 66.3 -3.25 64.53 -5.22 61.57 C-11.86 62.66 -18.27 64.04 -24.71 65.98 C-27.35 66.6 -29.53 66.81 -32.22 66.57 C-35.07 63.72 -35.02 61.53 -35.22 57.57 C-33.81 54.37 -32.87 52.89 -29.73 51.31 C-28.76 51.02 -27.79 50.74 -26.79 50.44 C-25.73 50.12 -24.67 49.81 -23.59 49.48 C-18.48 48.09 -13.37 46.77 -8.22 45.57 C-7.13 41.45 -7.4 38.37 -8.18 34.2 C-8.41 32.98 -8.63 31.77 -8.86 30.52 C-9.11 29.25 -9.35 27.99 -9.6 26.69 C-10.06 24.19 -10.53 21.7 -11 19.2 C-11.21 18.09 -11.42 16.99 -11.63 15.85 C-13.4 6 -13.4 6 -12.04 2.63 C-8.08 -0.27 -4.8 0.01 0 0 Z " fill="#010100" transform="translate(913.22265625,672.43359375)"/>
<path d="M0 0 C3.6 3.6 3.83 8.82 4.57 13.67 C4.76 15.95 4.76 15.95 6 17 C6.36 16.26 6.73 15.53 7.1 14.77 C10.47 8.24 13.26 3.37 20 0 C24.37 -0.53 28.02 -0.39 32.12 1.25 C47.16 15.63 53.89 45.87 55 66 C52.1 69.68 49.85 71.75 45.19 72.38 C40.85 71.86 39.73 70.36 37 67 C36.3 64.41 35.86 62.2 35.56 59.56 C34.51 52.41 33 45.48 31.12 38.5 C30.89 37.59 30.66 36.69 30.42 35.75 C28.75 29.62 26.33 24.41 23 19 C21.68 19 20.36 19 19 19 C15.26 25.58 13.73 31.84 12.38 39.25 C12.17 40.31 11.97 41.36 11.76 42.45 C10.55 48.78 9.49 55.13 8.56 61.51 C8 64 8 64 5.94 67.25 C2.02 69.58 -1.54 70 -6 69 C-7.59 67.89 -7.59 67.89 -9 66 C-9.51 62.98 -9.51 62.98 -9.7 59.32 C-9.73 58.67 -9.77 58.02 -9.81 57.35 C-9.93 55.28 -10.03 53.2 -10.12 51.12 C-10.23 49.06 -10.35 46.99 -10.46 44.92 C-10.57 43.04 -10.66 41.16 -10.75 39.27 C-10.97 36.42 -11.4 33.79 -12 31 C-12.41 26.34 -12.66 21.67 -12.89 16.99 C-12.99 15.21 -13.13 13.43 -13.27 11.65 C-13.42 8.98 -13.5 6.63 -13 4 C-9.15 -0.04 -5.47 -0.93 0 0 Z " fill="#010000" transform="translate(434,702)"/>
<path d="M0 0 C3.56 3.04 4.81 4.94 5.62 9.56 C4.82 13.98 3.54 15.29 0 18 C-6.48 21.09 -13.32 23.19 -20.12 25.44 C-21.27 25.82 -22.42 26.2 -23.6 26.6 C-29.18 28.45 -34.77 30.25 -40.4 31.96 C-45.17 33.41 -49.9 34.96 -54.62 36.58 C-55.26 36.8 -55.9 37.02 -56.57 37.24 C-59.19 38.14 -61.82 39.04 -64.44 39.95 C-66.4 40.62 -68.35 41.29 -70.31 41.95 C-72.02 42.54 -72.02 42.54 -73.77 43.15 C-78.61 44.43 -81.76 44.58 -86.31 42.44 C-89 40 -89 40 -90.06 36.62 C-89.99 32.33 -89.43 30.55 -87 27 C-84.19 25.31 -81.18 24.38 -78.06 23.38 C-76.65 22.89 -76.65 22.89 -75.21 22.4 C-71.81 21.24 -68.41 20.12 -65 19 C-62.09 18.03 -59.18 17.05 -56.27 16.07 C-50.06 13.98 -43.83 11.91 -37.61 9.86 C-32.49 8.17 -27.39 6.45 -22.3 4.68 C-21.34 4.34 -20.38 4.01 -19.4 3.67 C-17.71 3.08 -16.02 2.49 -14.34 1.88 C-9.36 0.16 -5.28 -0.48 0 0 Z " fill="#000000" transform="translate(404,469)"/>
<path d="M0 0 C3.17 2.42 4.75 5.15 5.29 9.11 C5.19 11.19 5.19 11.19 4 15 C-0.75 19.03 -5.24 19.93 -11.19 20.88 C-13.06 21.2 -14.93 21.53 -16.79 21.86 C-17.79 22.04 -18.79 22.21 -19.81 22.4 C-26.69 23.7 -33.5 25.32 -40.32 26.89 C-67.65 33.12 -67.65 33.12 -76.62 29.56 C-79.6 26.35 -79.68 24.56 -79.7 20.32 C-78.59 16.65 -77.08 15.31 -74 13 C-70.32 11.77 -66.57 11.14 -62.75 10.5 C-60.5 10.09 -58.24 9.67 -55.99 9.26 C-54.84 9.05 -53.68 8.85 -52.49 8.63 C-46.94 7.63 -41.41 6.5 -35.88 5.38 C-33.8 4.96 -31.72 4.55 -29.65 4.14 C-26.23 3.45 -22.82 2.75 -19.41 2.02 C-5.72 -0.92 -5.72 -0.92 0 0 Z " fill="#010100" transform="translate(408,316)"/>
<path d="M0 0 C5.05 3.23 7.47 7.89 9.96 13.2 C10.38 14 10.79 14.81 11.21 15.64 C13.18 22.35 14.02 29.72 10.96 36.2 C7.31 41.67 3.46 45.5 -3.04 47.2 C-10.07 47.87 -15.81 47.66 -22.04 44.2 C-25.62 40.62 -24.26 29.58 -24.29 24.76 C-24.31 23.87 -24.33 22.98 -24.35 22.06 C-24.38 15.69 -24 8.6 -19.62 3.57 C-14.17 -1.16 -6.84 -2.69 0 0 Z " fill="#EED55F" transform="translate(669.03515625,716.80078125)"/>
<path d="M0 0 C3.43 2.59 5.98 5.52 8.56 8.94 C9.16 9.72 9.76 10.5 10.38 11.31 C12.63 16.3 12.82 21.12 12.06 26.5 C9.47 32.45 5.77 36.63 0.19 39.94 C-6.66 41.83 -12.31 41.82 -18.58 38.27 C-23.87 34.48 -26.74 30.2 -28.44 23.94 C-29.25 16.28 -29.19 9.27 -24.44 2.94 C-18.38 -2.93 -7.55 -2.33 0 0 Z " fill="#EED55F" transform="translate(380.4375,724.0625)"/>
<path d="M0 0 C2.72 3 3.85 5.06 4.5 9.06 C3.85 12.89 2.86 14.36 0 17 C-6.32 19.79 -12.51 20.92 -19.31 21.94 C-27.84 23.27 -36.27 24.78 -44.67 26.78 C-51.2 28.26 -57.45 29.37 -63.5 26.12 C-66 24 -66 24 -67 22 C-67.25 18.13 -67.39 15.16 -65 12 C-59.83 8.86 -54.61 7.95 -48.75 6.94 C-46.95 6.61 -45.16 6.29 -43.36 5.96 C-42.47 5.81 -41.57 5.65 -40.66 5.48 C-35.54 4.55 -30.45 3.51 -25.36 2.45 C-22.68 1.9 -20 1.35 -17.31 0.81 C-15.97 0.53 -15.97 0.53 -14.59 0.24 C-9.46 -0.78 -5.17 -1.34 0 0 Z " fill="#010100" transform="translate(374,393)"/>
<path d="M0 0 C3.14 4.12 3.66 7.92 3 13 C-1.36 19.93 -13.09 21.73 -20.43 23.93 C-23.67 24.9 -26.89 25.9 -30.11 26.91 C-32.16 27.55 -34.21 28.19 -36.26 28.82 C-38.51 29.53 -40.76 30.26 -42.99 31.02 C-48.03 32.7 -51.73 33.55 -57 32 C-59.94 30.44 -59.94 30.44 -62 28 C-62.65 23.42 -62.83 21.45 -60.54 17.44 C-57.02 14.06 -53.45 13.16 -48.81 11.88 C-47.17 11.39 -45.53 10.91 -43.89 10.43 C-42.67 10.08 -42.67 10.08 -41.42 9.71 C-36.68 8.32 -32.03 6.7 -27.36 5.09 C-24.56 4.13 -21.75 3.19 -18.94 2.25 C-18 1.92 -17.05 1.59 -16.08 1.25 C-10.24 -0.67 -6.02 -1.52 0 0 Z " fill="#000000" transform="translate(398,540)"/>
<path d="M0 0 C5.14 4.05 7.76 10.72 9 17 C9.5 21.67 9.61 25.57 7.75 29.94 C4.62 33.63 3.23 34.88 -1.75 35.38 C-11.7 34.9 -20.12 28.88 -27 22 C-25.96 14.72 -21.22 7.95 -16 3 C-11.18 -0.4 -5.74 -1.44 0 0 Z " fill="#EED55F" transform="translate(298,719)"/>
<path d="M0 0 C0.99 0.5 0.99 0.5 2 1 C-7.28 7.92 -16.6 14.75 -26.38 20.96 C-27.78 21.86 -29.16 22.79 -30.53 23.73 C-41.04 30.14 -54.06 27.65 -65.38 24.99 C-69.62 23.94 -73.85 22.84 -78.08 21.73 C-84.32 20.17 -90.66 19.08 -97 18 C-94.14 16.41 -91.86 15.69 -88.61 15.4 C-87.74 15.32 -86.88 15.25 -85.99 15.16 C-85.07 15.09 -84.14 15.01 -83.19 14.94 C-82.22 14.85 -81.25 14.77 -80.26 14.68 C-73.2 14.1 -66.14 13.76 -59.06 13.5 C-40.66 12.78 -21.62 10.52 -5 2 C-2.06 0.69 -2.06 0.69 0 0 Z " fill="#EED55F" transform="translate(637,329)"/>
<path d="M0 0 C2.31 1.88 2.31 1.88 4 4 C4 4.99 4 5.98 4 7 C3.26 7.42 2.53 7.84 1.77 8.28 C-1.69 10.43 -3.25 13.14 -5.25 16.56 C-10.6 25.27 -17.74 36.52 -28.07 39.62 C-31.23 40.19 -33.53 40.2 -36.5 38.94 C-38 37 -38 37 -38.56 34.44 C-36.5 21.8 -25.95 11.36 -16 4 C-6 -1.9 -6 -1.9 0 0 Z " fill="#EED55F" transform="translate(586,718)"/>
<path d="M0 0 C0.99 0.66 1.98 1.32 3 2 C-3.9 7.18 -10.84 11.7 -18.62 15.44 C-19.63 15.93 -19.63 15.93 -20.65 16.44 C-29.9 20.73 -39.61 21.37 -49.69 21.31 C-50.74 21.31 -51.8 21.3 -52.89 21.3 C-61.58 21.16 -69.54 20.02 -78 18 C-82.48 16.97 -86.96 15.95 -91.44 14.94 C-92.6 14.67 -93.76 14.41 -94.96 14.13 C-102.36 12.47 -109.68 11.18 -117.24 10.58 C-118.83 10.45 -120.42 10.23 -122 10 C-122.33 9.34 -122.66 8.68 -123 8 C-103.93 7.47 -84.72 8.33 -65.88 11.53 C-43.95 15.11 -21.36 8.79 -1 1 C-0.67 0.67 -0.34 0.34 0 0 Z " fill="#EDD45F" transform="translate(827,292)"/>
<path d="M0 0 C2.45 1.3 2.82 2.46 3.88 5 C4.29 7.15 4.29 7.15 4.51 9.45 C4.59 10.3 4.68 11.15 4.76 12.02 C4.84 12.9 4.92 13.78 5 14.69 C5.09 15.55 5.17 16.41 5.26 17.29 C5.79 22.88 6.17 28.39 5.88 34 C3.38 36.06 3.38 36.06 0.88 37 C-2.37 34.88 -3.92 33.76 -4.94 29.95 C-5.02 28.78 -5.11 27.61 -5.19 26.41 C-5.28 25.13 -5.38 23.85 -5.47 22.54 C-5.51 21.87 -5.54 21.21 -5.58 20.53 C-5.69 18.5 -5.85 16.49 -6.01 14.46 C-6.63 4.65 -6.63 4.65 -4.25 1.59 C-2.12 0 -2.12 0 0 0 Z " fill="#010100" transform="translate(688.125,180)"/>
<path d="M0 0 C2.21 3.56 2.26 6.49 2.27 10.63 C2.27 11.91 2.27 13.19 2.27 14.51 C2.27 15.18 2.27 15.84 2.26 16.53 C2.25 18.56 2.26 20.59 2.27 22.62 C2.27 23.9 2.27 25.18 2.27 26.5 C2.26 27.68 2.26 28.85 2.26 30.06 C2 33 2 33 0 36 C-4.75 35.12 -4.75 35.12 -7 34 C-7.07 29.64 -7.13 25.28 -7.16 20.92 C-7.18 19.44 -7.2 17.95 -7.23 16.47 C-7.26 14.34 -7.28 12.21 -7.29 10.07 C-7.31 8.79 -7.32 7.51 -7.34 6.19 C-7 3 -7 3 -5.73 1.06 C-4 0 -4 0 0 0 Z " fill="#000000" transform="translate(801,164)"/>
<path d="M0 0 C2.38 0.31 2.38 0.31 5 1 C7.97 5.45 6.78 8.86 6 14 C5.81 15.29 5.63 16.59 5.43 17.92 C5.21 19.28 4.98 20.64 4.75 22 C4.54 23.28 4.33 24.56 4.11 25.88 C3 29 3 29 0.64 30.62 C-2 31 -2 31 -4.32 29.93 C-6 28 -6 28 -6.24 25.76 C-6.12 24.89 -6 24.02 -5.88 23.12 C-5.75 22.16 -5.62 21.19 -5.48 20.19 C-5.24 18.61 -5.24 18.61 -5 17 C-4.86 15.85 -4.72 14.71 -4.58 13.53 C-3.3 3.74 -3.3 3.74 0 0 Z " fill="#010100" transform="translate(517,220)"/>
<path d="M0 0 C2.72 1.74 3.36 3.05 5 6 C5.62 9.12 5.62 9.12 5 12 C2.36 15.04 0.65 15.89 -3.31 16.56 C-8.02 15.84 -11.62 14.44 -15 11 C-15.77 6.51 -15.53 4.8 -13 1 C-8.64 -0.45 -4.55 -0.76 0 0 Z " fill="#000000" transform="translate(874,675)"/>
<path d="M0 0 C2.19 1.8 3.13 3.13 4.12 5.75 C1.49 9.18 -1.15 9.39 -5.31 9.94 C-11.86 10.76 -18.28 10.97 -24.88 10.75 C-25.21 9.43 -25.53 8.11 -25.88 6.75 C-18.98 0.21 -9.32 -4.05 0 0 Z " fill="#EED55F" transform="translate(755.875,726.25)"/>
<path d="M0 0 C2.52 2.08 3.27 3.71 4.19 6.81 C-3.66 12.04 -15.67 11.11 -24.81 10.81 C-25.14 9.82 -25.47 8.83 -25.81 7.81 C-18.73 0.77 -10.24 -4.32 0 0 Z " fill="#EED55F" transform="translate(1008.8125,726.1875)"/>
<path d="M0 0 C3.53 1.26 5.1 3.17 7.62 5.94 C9.44 7.69 11.25 9.44 13.07 11.19 C14.71 13.04 15.72 14.64 16.62 16.94 C16.25 19.69 16.25 19.69 15.62 21.94 C11.92 22.3 10.14 22.3 7.03 20.14 C6.21 19.35 5.4 18.56 4.56 17.75 C3.71 16.93 2.85 16.1 1.97 15.25 C1.2 14.49 0.42 13.72 -0.38 12.94 C-0.95 12.44 -1.53 11.95 -2.13 11.44 C-4.65 9.25 -5.35 8.1 -5.88 4.75 C-5.71 3.82 -5.54 2.89 -5.38 1.94 C-2.38 -0.06 -2.38 -0.06 0 0 Z " fill="#000000" transform="translate(828.375,178.0625)"/>
<path d="M0 0 C3.5 0.96 6.65 2.41 9.89 4.02 C10.5 4.31 11.11 4.6 11.74 4.89 C15.8 6.9 18.26 9.06 20.83 12.77 C19.46 15.93 18.84 16.77 15.83 18.77 C12.51 17.13 9.2 15.48 5.89 13.84 C4.47 13.13 4.47 13.13 3.03 12.42 C2.13 11.97 1.23 11.52 0.3 11.06 C-0.53 10.64 -1.36 10.23 -2.22 9.8 C-4.17 8.77 -4.17 8.77 -5.17 7.77 C-5.47 4.94 -5.53 3.34 -3.98 0.9 C-2.17 -0.23 -2.17 -0.23 0 0 Z " fill="#000000" transform="translate(557.171875,198.2265625)"/>
<path d="M0 0 C6.69 0.08 15.59 0.42 20.75 5.05 C21.75 7.25 21.75 7.25 20.94 10 C20.55 10.74 20.15 11.49 19.75 12.25 C0.89 11.16 0.89 11.16 -6.25 6.25 C-5.15 0.1 -5.15 0.1 0 0 Z " fill="#020100" transform="translate(731.25,197.75)"/>
<path d="M0 0 C1.83 3.13 2.24 5.38 2.2 8.98 C2.19 10.39 2.19 10.39 2.18 11.82 C2.16 12.78 2.14 13.75 2.12 14.75 C2.12 15.73 2.11 16.72 2.1 17.73 C2.07 20.15 2.04 22.58 2 25 C-0.25 26.12 -0.25 26.12 -3 27 C-5.17 26.05 -5.17 26.05 -7 25 C-7.09 21.21 -7.14 17.42 -7.19 13.62 C-7.21 12.54 -7.24 11.46 -7.26 10.35 C-7.27 9.32 -7.28 8.29 -7.29 7.23 C-7.32 5.8 -7.32 5.8 -7.34 4.34 C-7.23 3.57 -7.12 2.8 -7 2 C-4 0 -4 0 0 0 Z " fill="#000000" transform="translate(621,213)"/>
<path d="M0 0 C4.36 0.26 6.82 2.09 10.12 4.81 C10.97 5.5 11.82 6.19 12.7 6.89 C14.81 8.83 16.5 10.56 18 13 C17.69 15.75 17.69 15.75 17 18 C14.85 18.73 14.85 18.73 12 19 C9.25 17.49 9.25 17.49 6.44 15.31 C5.51 14.61 4.58 13.9 3.62 13.18 C1.25 11.21 -0.98 9.32 -3 7 C-2.84 3.61 -2.42 2.42 0 0 Z " fill="#000000" transform="translate(630,170)"/>
<path d="M0 0 C5.59 0.6 10.44 1.87 15.12 5.12 C17.12 8.12 17.12 8.12 16.8 10.24 C16.12 12.12 16.12 12.12 15.12 13.12 C7.81 14.25 2.37 10.57 -3.88 7.12 C-4.01 4.74 -4.01 4.74 -3.88 2.12 C-1.88 0.12 -1.88 0.12 0 0 Z " fill="#010100" transform="translate(730.8828125,156.8828125)"/>
<path d="M0 0 C1.36 0 1.36 0 2.74 0.01 C3.76 0.01 4.78 0.01 5.83 0.01 C6.94 0.01 8.05 0.02 9.2 0.02 C10.89 0.02 10.89 0.02 12.62 0.03 C16.25 0.03 19.88 0.05 23.51 0.06 C25.96 0.06 28.41 0.07 30.86 0.07 C36.89 0.08 42.92 0.1 48.94 0.12 C48.94 0.78 48.94 1.44 48.94 2.12 C46.09 3.07 44.29 3.25 41.32 3.27 C39.92 3.28 39.92 3.28 38.49 3.28 C37.48 3.29 36.48 3.29 35.44 3.29 C34.41 3.29 33.37 3.29 32.31 3.3 C30.12 3.3 27.93 3.31 25.75 3.31 C22.39 3.31 19.04 3.33 15.68 3.34 C13.56 3.35 11.44 3.35 9.31 3.35 C8.31 3.36 7.3 3.37 6.26 3.37 C5.33 3.37 4.4 3.37 3.44 3.36 C2.62 3.36 1.79 3.37 0.95 3.37 C-1.06 3.12 -1.06 3.12 -3.06 1.12 C-2.06 0.12 -2.06 0.12 0 0 Z " fill="#1F1608" transform="translate(535.0564117431641,405.87974548339844)"/>
<path d="M0 0 C1.81 1.5 1.81 1.5 3 3 C-2.01 4.5 -6.99 5.67 -12.12 6.62 C-12.81 6.76 -13.5 6.89 -14.21 7.03 C-17.86 7.71 -21.3 8.16 -25 8 C-22.87 5.61 -21.23 4.51 -18.16 3.61 C-17.43 3.4 -16.69 3.18 -15.94 2.96 C-15.17 2.75 -14.41 2.53 -13.62 2.31 C-12.87 2.09 -12.11 1.86 -11.34 1.63 C-7.52 0.53 -4.01 -0.46 0 0 Z " fill="#D3B04B" transform="translate(793,503)"/>
<path d="M0 0 C5.94 0 11.88 0 18 0 C18 0.66 18 1.32 18 2 C24.93 2 31.86 2 39 2 C39 2.33 39 2.66 39 3 C25.95 3.11 13.01 3.06 0 2 C0 1.34 0 0.68 0 0 Z " fill="#CDB251" transform="translate(869,405)"/>
<path d="M0 0 C-2 2 -2 2 -5.26 2.2 C-6.53 2.17 -7.81 2.15 -9.12 2.12 C-11.05 2.1 -11.05 2.1 -13.01 2.07 C-14.49 2.04 -14.49 2.04 -16 2 C-16 1.34 -16 0.68 -16 0 C-13.9 -0.2 -11.79 -0.38 -9.69 -0.56 C-8.52 -0.67 -7.34 -0.77 -6.14 -0.88 C-3 -1 -3 -1 0 0 Z " fill="#1F1608" transform="translate(613,406)"/>
<path d="M0 0 C3.63 0 7.26 0 11 0 C11.33 0.99 11.66 1.98 12 3 C8.04 2.67 4.08 2.34 0 2 C0 1.34 0 0.68 0 0 Z " fill="#1F1608" transform="translate(1000,710)"/>
</svg>
